<svg width="110" height="30" viewBox="0 0 110 30" fill="none" xmlns="http://www.w3.org/2000/svg">
<g filter="url(#filter0_i_33_1215)">
<rect x="0.5" width="109" height="30" rx="8" fill="#8C45FF" fill-opacity="0.4"/>
<rect x="1" y="0.5" width="108" height="29" rx="7.5" stroke="white" stroke-opacity="0.15"/>
<path d="M20.9965 9.81818H22.2295V17.0966C22.2295 17.7462 22.1101 18.2981 21.8715 18.7521C21.6329 19.2062 21.2965 19.5509 20.8623 19.7862C20.4281 20.0215 19.916 20.1392 19.326 20.1392C18.7692 20.1392 18.2737 20.0381 17.8395 19.8359C17.4054 19.6304 17.064 19.3388 16.8154 18.9609C16.5668 18.5831 16.4425 18.134 16.4425 17.6136H17.6556C17.6556 17.902 17.7269 18.1539 17.8694 18.3693C18.0152 18.5814 18.2141 18.7472 18.466 18.8665C18.7179 18.9858 19.0046 19.0455 19.326 19.0455C19.6807 19.0455 19.9823 18.9709 20.2309 18.8217C20.4795 18.6726 20.6684 18.4538 20.7976 18.1655C20.9302 17.8738 20.9965 17.5175 20.9965 17.0966V9.81818ZM27.6421 20.1591C26.9527 20.1591 26.3478 19.995 25.8275 19.6669C25.3104 19.3388 24.9061 18.8797 24.6144 18.2898C24.3261 17.6998 24.1819 17.0104 24.1819 16.2216C24.1819 15.4261 24.3261 14.7318 24.6144 14.1385C24.9061 13.5452 25.3104 13.0845 25.8275 12.7564C26.3478 12.4283 26.9527 12.2642 27.6421 12.2642C28.3315 12.2642 28.9347 12.4283 29.4518 12.7564C29.9721 13.0845 30.3765 13.5452 30.6648 14.1385C30.9565 14.7318 31.1023 15.4261 31.1023 16.2216C31.1023 17.0104 30.9565 17.6998 30.6648 18.2898C30.3765 18.8797 29.9721 19.3388 29.4518 19.6669C28.9347 19.995 28.3315 20.1591 27.6421 20.1591ZM27.6421 19.1051C28.1658 19.1051 28.5967 18.9709 28.9347 18.7024C29.2728 18.4339 29.523 18.081 29.6854 17.6435C29.8479 17.206 29.9291 16.732 29.9291 16.2216C29.9291 15.7112 29.8479 15.2356 29.6854 14.7947C29.523 14.3539 29.2728 13.9976 28.9347 13.7259C28.5967 13.4541 28.1658 13.3182 27.6421 13.3182C27.1184 13.3182 26.6876 13.4541 26.3495 13.7259C26.0114 13.9976 25.7612 14.3539 25.5988 14.7947C25.4364 15.2356 25.3552 15.7112 25.3552 16.2216C25.3552 16.732 25.4364 17.206 25.5988 17.6435C25.7612 18.081 26.0114 18.4339 26.3495 18.7024C26.6876 18.9709 27.1184 19.1051 27.6421 19.1051ZM32.892 20V12.3636H34.0653V20H32.892ZM33.4886 11.0909C33.2599 11.0909 33.0627 11.013 32.8969 10.8572C32.7345 10.7015 32.6533 10.5142 32.6533 10.2955C32.6533 10.0767 32.7345 9.88944 32.8969 9.73366C33.0627 9.57789 33.2599 9.5 33.4886 9.5C33.7172 9.5 33.9128 9.57789 34.0752 9.73366C34.2409 9.88944 34.3238 10.0767 34.3238 10.2955C34.3238 10.5142 34.2409 10.7015 34.0752 10.8572C33.9128 11.013 33.7172 11.0909 33.4886 11.0909ZM37.3861 15.4062V20H36.2128V12.3636H37.3464V13.5568H37.4458C37.6248 13.169 37.8965 12.8575 38.2611 12.6222C38.6257 12.3835 39.0964 12.2642 39.6731 12.2642C40.1901 12.2642 40.6425 12.3703 41.0303 12.5824C41.4181 12.7912 41.7197 13.1094 41.9351 13.5369C42.1506 13.9612 42.2583 14.4981 42.2583 15.1477V20H41.085V15.2273C41.085 14.6274 40.9292 14.16 40.6177 13.8253C40.3061 13.4872 39.8785 13.3182 39.335 13.3182C38.9605 13.3182 38.6257 13.3994 38.3307 13.5618C38.0391 13.7242 37.8087 13.9612 37.6397 14.2727C37.4706 14.5843 37.3861 14.9621 37.3861 15.4062ZM50.0671 20L47.7404 12.3636H48.9733L50.6239 18.2102H50.7035L52.3341 12.3636H53.587L55.1978 18.1903H55.2773L56.9279 12.3636H58.1608L55.8341 20H54.6807L53.0103 14.1335H52.891L51.2205 20H50.0671ZM61.9577 20.179C61.4738 20.179 61.0347 20.0878 60.6403 19.9055C60.2459 19.7199 59.9326 19.4531 59.7006 19.1051C59.4686 18.7538 59.3526 18.3295 59.3526 17.8324C59.3526 17.3949 59.4388 17.0402 59.6112 16.7685C59.7835 16.4934 60.0138 16.2779 60.3022 16.1222C60.5906 15.9664 60.9087 15.8504 61.2567 15.7741C61.6081 15.6946 61.9611 15.6316 62.3157 15.5852C62.7797 15.5256 63.1559 15.4808 63.4442 15.451C63.7359 15.4179 63.948 15.3632 64.0806 15.2869C64.2165 15.2107 64.2844 15.0781 64.2844 14.8892V14.8494C64.2844 14.3589 64.1502 13.9777 63.8817 13.706C63.6166 13.4342 63.2139 13.2983 62.6737 13.2983C62.1135 13.2983 61.6744 13.4209 61.3562 13.6662C61.038 13.9115 60.8143 14.1733 60.685 14.4517L59.5714 14.054C59.7702 13.59 60.0354 13.2287 60.3668 12.9702C60.7016 12.7083 61.0662 12.526 61.4606 12.4233C61.8583 12.3172 62.2494 12.2642 62.6339 12.2642C62.8791 12.2642 63.1609 12.294 63.479 12.3537C63.8005 12.41 64.1104 12.5277 64.4087 12.7067C64.7103 12.8857 64.9606 13.1558 65.1594 13.517C65.3583 13.8783 65.4577 14.3622 65.4577 14.9688V20H64.2844V18.9659H64.2248C64.1452 19.1316 64.0127 19.3089 63.8271 19.4979C63.6415 19.6868 63.3945 19.8475 63.0863 19.9801C62.7781 20.1127 62.4019 20.179 61.9577 20.179ZM62.1367 19.125C62.6007 19.125 62.9918 19.0339 63.31 18.8516C63.6315 18.6693 63.8735 18.4339 64.0359 18.1456C64.2016 17.8572 64.2844 17.554 64.2844 17.2358V16.1619C64.2347 16.2216 64.1254 16.2763 63.9563 16.326C63.7906 16.3724 63.5984 16.4138 63.3796 16.4503C63.1642 16.4834 62.9537 16.5133 62.7482 16.5398C62.546 16.563 62.382 16.5829 62.256 16.5994C61.9511 16.6392 61.6661 16.7038 61.4009 16.7933C61.1391 16.8795 60.927 17.0104 60.7646 17.1861C60.6055 17.3584 60.5259 17.5937 60.5259 17.892C60.5259 18.2997 60.6767 18.608 60.9783 18.8168C61.2833 19.0223 61.6694 19.125 62.1367 19.125ZM67.5979 20V12.3636H68.7711V20H67.5979ZM68.1944 11.0909C67.9658 11.0909 67.7685 11.013 67.6028 10.8572C67.4404 10.7015 67.3592 10.5142 67.3592 10.2955C67.3592 10.0767 67.4404 9.88944 67.6028 9.73366C67.7685 9.57789 67.9658 9.5 68.1944 9.5C68.4231 9.5 68.6187 9.57789 68.7811 9.73366C68.9468 9.88944 69.0297 10.0767 69.0297 10.2955C69.0297 10.5142 68.9468 10.7015 68.7811 10.8572C68.6187 11.013 68.4231 11.0909 68.1944 11.0909ZM74.2397 12.3636V13.358H70.2824V12.3636H74.2397ZM71.4358 10.5341H72.6091V17.8125C72.6091 18.1439 72.6571 18.3925 72.7532 18.5582C72.8527 18.7206 72.9786 18.83 73.1311 18.8864C73.2869 18.9394 73.4509 18.9659 73.6233 18.9659C73.7525 18.9659 73.8586 18.9593 73.9414 18.946C74.0243 18.9295 74.0906 18.9162 74.1403 18.9062L74.3789 19.9602C74.2994 19.9901 74.1884 20.0199 74.0459 20.0497C73.9033 20.0829 73.7227 20.0994 73.5039 20.0994C73.1725 20.0994 72.8477 20.0282 72.5295 19.8857C72.2146 19.7431 71.9528 19.526 71.744 19.2344C71.5385 18.9427 71.4358 18.5748 71.4358 18.1307V10.5341ZM77.3406 9.81818V20H76.1673V9.81818H77.3406ZM79.4882 20V12.3636H80.6615V20H79.4882ZM80.0848 11.0909C79.8561 11.0909 79.6589 11.013 79.4932 10.8572C79.3308 10.7015 79.2495 10.5142 79.2495 10.2955C79.2495 10.0767 79.3308 9.88944 79.4932 9.73366C79.6589 9.57789 79.8561 9.5 80.0848 9.5C80.3135 9.5 80.509 9.57789 80.6714 9.73366C80.8371 9.88944 80.92 10.0767 80.92 10.2955C80.92 10.5142 80.8371 10.7015 80.6714 10.8572C80.509 11.013 80.3135 11.0909 80.0848 11.0909ZM88.2181 14.0739L87.1642 14.3722C87.0979 14.1965 87.0001 14.0258 86.8708 13.8601C86.7449 13.6911 86.5725 13.5518 86.3538 13.4425C86.135 13.3331 85.855 13.2784 85.5136 13.2784C85.0463 13.2784 84.6568 13.3861 84.3453 13.6016C84.037 13.8137 83.8829 14.0838 83.8829 14.4119C83.8829 14.7036 83.989 14.9339 84.2011 15.103C84.4132 15.272 84.7447 15.4129 85.1954 15.5256L86.3289 15.804C87.0117 15.9697 87.5205 16.2232 87.8552 16.5646C88.19 16.9027 88.3573 17.3385 88.3573 17.8722C88.3573 18.3097 88.2314 18.7008 87.9795 19.0455C87.7309 19.3902 87.3829 19.6619 86.9355 19.8608C86.488 20.0597 85.9677 20.1591 85.3744 20.1591C84.5955 20.1591 83.9509 19.9901 83.4404 19.652C82.93 19.3139 82.6069 18.8201 82.471 18.1705L83.5846 17.892C83.6907 18.303 83.8912 18.6113 84.1862 18.8168C84.4845 19.0223 84.8739 19.125 85.3545 19.125C85.9014 19.125 86.3356 19.009 86.6571 18.777C86.9819 18.5417 87.1443 18.2599 87.1443 17.9318C87.1443 17.6667 87.0515 17.4446 86.8659 17.2656C86.6803 17.0833 86.3952 16.9474 86.0108 16.858L84.738 16.5597C84.0387 16.3939 83.525 16.1371 83.1968 15.7891C82.872 15.4377 82.7096 14.9986 82.7096 14.4716C82.7096 14.0407 82.8306 13.6596 83.0725 13.3281C83.3178 12.9967 83.6509 12.7365 84.0718 12.5476C84.4961 12.3587 84.9767 12.2642 85.5136 12.2642C86.2693 12.2642 86.8626 12.4299 87.2934 12.7614C87.7276 13.0928 88.0358 13.5303 88.2181 14.0739ZM93.4431 12.3636V13.358H89.4857V12.3636H93.4431ZM90.6391 10.5341H91.8124V17.8125C91.8124 18.1439 91.8605 18.3925 91.9566 18.5582C92.0561 18.7206 92.182 18.83 92.3345 18.8864C92.4902 18.9394 92.6543 18.9659 92.8266 18.9659C92.9559 18.9659 93.062 18.9593 93.1448 18.946C93.2277 18.9295 93.294 18.9162 93.3437 18.9062L93.5823 19.9602C93.5028 19.9901 93.3918 20.0199 93.2492 20.0497C93.1067 20.0829 92.9261 20.0994 92.7073 20.0994C92.3759 20.0994 92.0511 20.0282 91.7329 19.8857C91.418 19.7431 91.1562 19.526 90.9474 19.2344C90.7419 18.9427 90.6391 18.5748 90.6391 18.1307V10.5341Z" fill="white"/>
</g>
<defs>
<filter id="filter0_i_33_1215" x="-13.5" y="-14" width="137" height="58" filterUnits="userSpaceOnUse" color-interpolation-filters="sRGB">
<feFlood flood-opacity="0" result="BackgroundImageFix"/>
<feBlend mode="normal" in="SourceGraphic" in2="BackgroundImageFix" result="shape"/>
<feColorMatrix in="SourceAlpha" type="matrix" values="0 0 0 0 0 0 0 0 0 0 0 0 0 0 0 0 0 0 127 0" result="hardAlpha"/>
<feMorphology radius="3" operator="erode" in="SourceAlpha" result="effect1_innerShadow_33_1215"/>
<feOffset/>
<feGaussianBlur stdDeviation="3"/>
<feComposite in2="hardAlpha" operator="arithmetic" k2="-1" k3="1"/>
<feColorMatrix type="matrix" values="0 0 0 0 1 0 0 0 0 1 0 0 0 0 1 0 0 0 0.25 0"/>
<feBlend mode="normal" in2="shape" result="effect1_innerShadow_33_1215"/>
</filter>
</defs>
</svg>
